<?xml version="1.0" encoding="UTF-8" standalone="no" ?>
<!DOCTYPE svg PUBLIC "-//W3C//DTD SVG 1.1//EN" "http://www.w3.org/Graphics/SVG/1.1/DTD/svg11.dtd">
<svg xmlns="http://www.w3.org/2000/svg" xmlns:xlink="http://www.w3.org/1999/xlink" version="1.1" width="221.91699999999997" height="192.04999999999998" xml:space="preserve">
<desc>Created with Fabric.js 1.6.0-rc.1</desc>
<defs></defs>
<g style="stroke: none; stroke-width: 1; stroke-dasharray: none; stroke-linecap: butt; stroke-linejoin: miter; stroke-miterlimit: 10; fill: none; fill-rule: nonzero; opacity: 1;" transform="translate(10 10) scale(0.25 0.25)" >
  <rect x="204.64" y="235.07" rx="0" ry="0" width="60.8" height="21.33" style="stroke: none; stroke-width: 1; stroke-dasharray: none; stroke-linecap: butt; stroke-linejoin: miter; stroke-miterlimit: 10; fill: #000000; fill-rule: nonzero; opacity: 1;" transform=" matrix(-0.7071 -0.7071 0.7071 -0.7071 227.4722 585.7009) "/>
  <rect x="266.37" y="215.32" rx="0" ry="0" width="21.33" height="60.8" style="stroke: none; stroke-width: 1; stroke-dasharray: none; stroke-linecap: butt; stroke-linejoin: miter; stroke-miterlimit: 10; fill: #000000; fill-rule: nonzero; opacity: 1;" transform=" matrix(-0.7071 -0.7071 0.7071 -0.7071 299.186 615.3712) "/>
  <rect x="245.33" y="181.33" rx="0" ry="0" width="21.33" height="213.33" style="stroke: none; stroke-width: 1; stroke-dasharray: none; stroke-linecap: butt; stroke-linejoin: miter; stroke-miterlimit: 10; fill: #000000; fill-rule: nonzero; opacity: 1;" transform=" matrix(1 0 0 1 0 0) "/>
  <path d="M 256 53.333 C 202.667 96 170.667 170.667 170.667 224 c 0 46.933 38.4 85.333 85.333 85.333 s 85.333 -38.4 85.333 -85.333 C 341.333 170.667 309.333 96 256 53.333 z" style="stroke: none; stroke-width: 1; stroke-dasharray: none; stroke-linecap: butt; stroke-linejoin: miter; stroke-miterlimit: 10; fill: #A0E8EB; fill-rule: nonzero; opacity: 0;" transform=" matrix(1 0 0 1 0 0) " stroke-linecap="round" />
  <path d="M 330.667 394.667 h -21.333 c 0 -54.4 9.6 -81.067 35.2 -104.533 c 27.733 -23.467 60.8 -64 60.8 -119.467 c 0 -82.133 -67.2 -149.333 -149.333 -149.333 c -82.133 0 -149.333 67.2 -149.333 149.333 c 0 55.467 33.067 96 60.8 119.467 c 26.667 22.4 35.2 50.133 35.2 104.533 h -21.333 c 0 -53.333 -9.6 -71.467 -28.8 -87.467 c -43.733 -38.4 -67.2 -85.333 -67.2 -136.533 C 85.333 76.8 162.133 0 256 0 s 170.667 76.8 170.667 170.667 c 0 50.133 -23.467 98.133 -67.2 136.533 C 340.267 323.2 330.667 341.333 330.667 394.667 z" style="stroke: none; stroke-width: 1; stroke-dasharray: none; stroke-linecap: butt; stroke-linejoin: miter; stroke-miterlimit: 10; fill: #000000; fill-rule: nonzero; opacity: 1;" transform=" matrix(1 0 0 1 0 0) " stroke-linecap="round" />
  <rect x="160" y="384" rx="0" ry="0" width="64" height="21.33" style="stroke: none; stroke-width: 1; stroke-dasharray: none; stroke-linecap: butt; stroke-linejoin: miter; stroke-miterlimit: 10; fill: #000000; fill-rule: nonzero; opacity: 1;" transform=" matrix(1 0 0 1 0 0) "/>
  <rect x="160" y="426.67" rx="0" ry="0" width="64" height="21.33" style="stroke: none; stroke-width: 1; stroke-dasharray: none; stroke-linecap: butt; stroke-linejoin: miter; stroke-miterlimit: 10; fill: #000000; fill-rule: nonzero; opacity: 1;" transform=" matrix(1 0 0 1 0 0) "/>
  <rect x="245.33" y="384" rx="0" ry="0" width="106.67" height="21.33" style="stroke: none; stroke-width: 1; stroke-dasharray: none; stroke-linecap: butt; stroke-linejoin: miter; stroke-miterlimit: 10; fill: #000000; fill-rule: nonzero; opacity: 1;" transform=" matrix(1 0 0 1 0 0) "/>
  <rect x="245.33" y="426.67" rx="0" ry="0" width="106.67" height="21.33" style="stroke: none; stroke-width: 1; stroke-dasharray: none; stroke-linecap: butt; stroke-linejoin: miter; stroke-miterlimit: 10; fill: #000000; fill-rule: nonzero; opacity: 1;" transform=" matrix(1 0 0 1 0 0) "/>
  <path d="M 277.333 512 h -42.667 c -5.333 0 -10.667 -2.133 -14.933 -6.4 s -6.4 -9.6 -6.4 -14.933 v -21.333 h 21.333 v 21.333 h 42.667 v -21.333 h 21.333 v 21.333 c 0 5.333 -2.133 10.667 -6.4 14.933 C 288 509.867 282.667 512 277.333 512 z" style="stroke: none; stroke-width: 1; stroke-dasharray: none; stroke-linecap: butt; stroke-linejoin: miter; stroke-miterlimit: 10; fill: #000000; fill-rule: nonzero; opacity: 1;" transform=" matrix(1 0 0 1 0 0) " stroke-linecap="round" />
  <rect x="181.33" y="384" rx="0" ry="0" width="149.33" height="85.33" style="stroke: none; stroke-width: 1; stroke-dasharray: none; stroke-linecap: butt; stroke-linejoin: miter; stroke-miterlimit: 10; fill: #ff0000; fill-rule: nonzero; opacity: 1;" transform=" matrix(1 0 0 1 0 0) "/>
  <rect x="448" y="160" rx="0" ry="0" width="32" height="21.33" style="stroke: none; stroke-width: 1; stroke-dasharray: none; stroke-linecap: butt; stroke-linejoin: miter; stroke-miterlimit: 10; fill: #000000; fill-rule: nonzero; opacity: 1;" transform=" matrix(1 0 0 1 0 0) "/>
  <rect x="440.44" y="213.35" rx="0" ry="0" width="32" height="21.33" style="stroke: none; stroke-width: 1; stroke-dasharray: none; stroke-linecap: butt; stroke-linejoin: miter; stroke-miterlimit: 10; fill: #000000; fill-rule: nonzero; opacity: 1;" transform=" matrix(-0.966 -0.2587 0.2587 -0.966 839.3867 558.4855) "/>
  <rect x="445.85" y="100.61" rx="0" ry="0" width="21.33" height="32" style="stroke: none; stroke-width: 1; stroke-dasharray: none; stroke-linecap: butt; stroke-linejoin: miter; stroke-miterlimit: 10; fill: #000000; fill-rule: nonzero; opacity: 1;" transform=" matrix(-0.2588 -0.9659 0.9659 -0.2588 462.0309 587.7454) "/>
  <rect x="32" y="160" rx="0" ry="0" width="32" height="21.33" style="stroke: none; stroke-width: 1; stroke-dasharray: none; stroke-linecap: butt; stroke-linejoin: miter; stroke-miterlimit: 10; fill: #000000; fill-rule: nonzero; opacity: 1;" transform=" matrix(1 0 0 1 0 0) "/>
  <rect x="45.21" y="208.77" rx="0" ry="0" width="21.33" height="32" style="stroke: none; stroke-width: 1; stroke-dasharray: none; stroke-linecap: butt; stroke-linejoin: miter; stroke-miterlimit: 10; fill: #000000; fill-rule: nonzero; opacity: 1;" transform=" matrix(-0.2588 -0.9659 0.9659 -0.2588 -146.7729 336.9116) "/>
  <rect x="39.37" y="106.8" rx="0" ry="0" width="32" height="21.33" style="stroke: none; stroke-width: 1; stroke-dasharray: none; stroke-linecap: butt; stroke-linejoin: miter; stroke-miterlimit: 10; fill: #000000; fill-rule: nonzero; opacity: 1;" transform=" matrix(-0.9658 -0.2593 0.2593 -0.9658 78.3928 245.2687) "/>
  <rect x="181.33" y="384" rx="0" ry="0" width="42.67" height="21.33" style="stroke: none; stroke-width: 1; stroke-dasharray: none; stroke-linecap: butt; stroke-linejoin: miter; stroke-miterlimit: 10; fill: #141313; fill-rule: nonzero; opacity: 1;" transform=" matrix(1 0 0 1 0 0) "/>
  <rect x="181.33" y="426.67" rx="0" ry="0" width="42.67" height="21.33" style="stroke: none; stroke-width: 1; stroke-dasharray: none; stroke-linecap: butt; stroke-linejoin: miter; stroke-miterlimit: 10; fill: #141313; fill-rule: nonzero; opacity: 1;" transform=" matrix(1 0 0 1 0 0) "/>
  <rect x="245.33" y="384" rx="0" ry="0" width="85.33" height="21.33" style="stroke: none; stroke-width: 1; stroke-dasharray: none; stroke-linecap: butt; stroke-linejoin: miter; stroke-miterlimit: 10; fill: #141313; fill-rule: nonzero; opacity: 1;" transform=" matrix(1 0 0 1 0 0) "/>
  <rect x="245.33" y="426.67" rx="0" ry="0" width="85.33" height="21.33" style="stroke: none; stroke-width: 1; stroke-dasharray: none; stroke-linecap: butt; stroke-linejoin: miter; stroke-miterlimit: 10; fill: #141313; fill-rule: nonzero; opacity: 1;" transform=" matrix(1 0 0 1 0 0) "/>
  <path d="M 266.667 241.067 v -59.733 h -21.333 v 59.733 L 220.8 216.534 l -14.933 14.933 l 39.467 39.467 v 37.333 c 3.2 0 7.467 1.067 10.667 1.067 c 3.2 0 7.467 0 10.667 -1.067 v -37.333 l 39.467 -39.467 L 291.2 216.534 L 266.667 241.067 z" style="stroke: none; stroke-width: 1; stroke-dasharray: none; stroke-linecap: butt; stroke-linejoin: miter; stroke-miterlimit: 10; fill: #000000; fill-rule: nonzero; opacity: 1;" transform=" matrix(1 0 0 1 0 0) " stroke-linecap="round" />
</g>
<g style="stroke: none; stroke-width: 1; stroke-dasharray: none; stroke-linecap: butt; stroke-linejoin: miter; stroke-miterlimit: 10; fill: none; fill-rule: nonzero; opacity: 1;" transform="translate(122.51999999999998 74.32) rotate(180.38) scale(0.21 0.21)" >
  <circle cx="230.974" cy="134.79399999999998" r="32.914" style="stroke: none; stroke-width: 1; stroke-dasharray: none; stroke-linecap: butt; stroke-linejoin: miter; stroke-miterlimit: 10; fill: #4DD0E2; fill-rule: nonzero; opacity: 1;" transform="  matrix(1 0 0 1 0 0) "/>
  <path d="M 249.676 322.038 V 214.204 c 0 -11.542 -9.356 -20.898 -20.898 -20.898 l 0 0 c -11.542 0 -20.898 9.356 -20.898 20.898 v 196.671 l -47.094 -47.094 c -16.321 16.321 -16.321 42.789 0 59.11 l 81.283 81.272 h 174.791 V 367.73 c 0 -10.21 -7.377 -18.924 -17.446 -20.611 L 249.676 322.038 z" style="stroke: none; stroke-width: 1; stroke-dasharray: none; stroke-linecap: butt; stroke-linejoin: miter; stroke-miterlimit: 10; fill: #eb9f13; fill-rule: nonzero; opacity: 0;" transform=" matrix(1 0 0 1 0 0) " stroke-linecap="round" />
  <path d="M 189.697 246.559 c -46.555 -17.205 -77.834 -62.121 -77.834 -111.768 H 96.189 c 0 28.096 8.562 55.022 24.759 77.869 c 15.839 22.34 37.732 39.145 63.316 48.6 L 189.697 246.559 z" style="stroke: none; stroke-width: 1; stroke-dasharray: none; stroke-linecap: butt; stroke-linejoin: miter; stroke-miterlimit: 10; fill: #412fcc; fill-rule: nonzero; opacity: 0;" transform=" matrix(1 0 0 1 0 0) " stroke-linecap="round" />
  <path d="M 350.099 134.792 c 0 51.636 -32.94 97.131 -81.969 113.208 l 4.884 14.893 c 55.482 -18.194 92.759 -69.674 92.759 -128.101 C 365.772 60.467 305.305 0 230.98 0 v 15.673 C 296.663 15.673 350.099 69.11 350.099 134.792 z" style="stroke: none; stroke-width: 1; stroke-dasharray: none; stroke-linecap: butt; stroke-linejoin: miter; stroke-miterlimit: 10; fill: #412fcc; fill-rule: nonzero; opacity: 0;" transform=" matrix(1 0 0 1 0 0) " stroke-linecap="round" />
  <path d="M 184.463 209.227 l 8.315 -13.286 c -21.224 -13.285 -33.895 -36.144 -33.895 -61.151 c 0 -39.755 32.343 -72.098 72.098 -72.098 V 47.02 c -48.398 0 -87.771 39.374 -87.771 87.771 C 143.209 165.233 158.631 193.058 184.463 209.227 z" style="stroke: none; stroke-width: 1; stroke-dasharray: none; stroke-linecap: butt; stroke-linejoin: miter; stroke-miterlimit: 10; fill: #412fcc; fill-rule: nonzero; opacity: 0;" transform=" matrix(1 0 0 1 0 0) " stroke-linecap="round" />
  <path d="M 318.752 134.792 h -15.673 c 0 26.279 -14.313 50.491 -37.355 63.186 l 7.564 13.728 C 301.33 196.254 318.752 166.782 318.752 134.792 z" style="stroke: none; stroke-width: 1; stroke-dasharray: none; stroke-linecap: butt; stroke-linejoin: miter; stroke-miterlimit: 10; fill: #412fcc; fill-rule: nonzero; opacity: 0;" transform=" matrix(1 0 0 1 0 0) " stroke-linecap="round" />
  <path d="M 230.98 94.041 c -22.471 0 -40.751 18.28 -40.751 40.751 s 18.28 40.751 40.751 40.751 s 40.751 -18.28 40.751 -40.751 S 253.451 94.041 230.98 94.041 z M 230.98 159.869 c -13.828 0 -25.078 -11.249 -25.078 -25.078 c 0 -13.828 11.249 -25.078 25.078 -25.078 s 25.078 11.249 25.078 25.078 C 256.058 148.62 244.809 159.869 230.98 159.869 z" style="stroke: none; stroke-width: 1; stroke-dasharray: none; stroke-linecap: butt; stroke-linejoin: miter; stroke-miterlimit: 10; fill: #412fcc; fill-rule: nonzero; opacity: 0;" transform=" matrix(1 0 0 1 0 0) " stroke-linecap="round" />
  <path d="M 400.708 339.39 l -143.195 -23.985 V 214.204 c 0 -15.845 -12.89 -28.735 -28.735 -28.735 s -28.735 12.89 -28.735 28.735 v 177.752 l -39.257 -39.257 l -5.541 5.541 c -19.352 19.352 -19.352 50.841 0.001 70.193 L 238.823 512 h 185.874 V 367.73 C 424.696 353.636 414.608 341.717 400.708 339.39 z M 409.023 496.327 H 245.314 l -78.987 -78.977 c -11.334 -11.335 -12.966 -28.754 -4.896 -41.841 l 54.286 54.286 V 214.204 c 0 -7.202 5.859 -13.061 13.061 -13.061 s 13.061 5.859 13.061 13.061 v 114.466 l 156.28 26.177 c 6.317 1.058 10.904 6.475 10.904 12.882 L 409.023 496.327 L 409.023 496.327 z" style="stroke: none; stroke-width: 1; stroke-dasharray: none; stroke-linecap: butt; stroke-linejoin: miter; stroke-miterlimit: 10; fill: #412fcc; fill-rule: nonzero; opacity: 0;" transform=" matrix(1 0 0 1 0 0) " stroke-linecap="round" />
  <rect x="267.02" y="74.71" rx="0" ry="0" width="15.67" height="15.67" style="stroke: none; stroke-width: 1; stroke-dasharray: none; stroke-linecap: butt; stroke-linejoin: miter; stroke-miterlimit: 10; fill: #412fcc; fill-rule: nonzero; opacity: 0;" transform=" matrix(1 0 0 1 0 0) "/>
  <rect x="138.5" y="188.6" rx="0" ry="0" width="15.67" height="15.67" style="stroke: none; stroke-width: 1; stroke-dasharray: none; stroke-linecap: butt; stroke-linejoin: miter; stroke-miterlimit: 10; fill: #412fcc; fill-rule: nonzero; opacity: 0;" transform=" matrix(1 0 0 1 0 0) "/>
  <rect x="310.91" y="103.97" rx="0" ry="0" width="15.67" height="15.67" style="stroke: none; stroke-width: 1; stroke-dasharray: none; stroke-linecap: butt; stroke-linejoin: miter; stroke-miterlimit: 10; fill: #412fcc; fill-rule: nonzero; opacity: 0;" transform=" matrix(1 0 0 1 0 0) "/>
  <rect x="157.31" y="22.46" rx="0" ry="0" width="15.67" height="15.67" style="stroke: none; stroke-width: 1; stroke-dasharray: none; stroke-linecap: butt; stroke-linejoin: miter; stroke-miterlimit: 10; fill: #412fcc; fill-rule: nonzero; opacity: 0;" transform=" matrix(1 0 0 1 0 0) "/>
  <rect x="379.87" y="69.49" rx="0" ry="0" width="15.67" height="15.67" style="stroke: none; stroke-width: 1; stroke-dasharray: none; stroke-linecap: butt; stroke-linejoin: miter; stroke-miterlimit: 10; fill: #412fcc; fill-rule: nonzero; opacity: 0;" transform=" matrix(1 0 0 1 0 0) "/>
  <rect x="366.29" y="179.2" rx="0" ry="0" width="15.67" height="15.67" style="stroke: none; stroke-width: 1; stroke-dasharray: none; stroke-linecap: butt; stroke-linejoin: miter; stroke-miterlimit: 10; fill: #412fcc; fill-rule: nonzero; opacity: 0;" transform=" matrix(1 0 0 1 0 0) "/>
  <rect x="87.3" y="89.34" rx="0" ry="0" width="15.67" height="15.67" style="stroke: none; stroke-width: 1; stroke-dasharray: none; stroke-linecap: butt; stroke-linejoin: miter; stroke-miterlimit: 10; fill: #412fcc; fill-rule: nonzero; opacity: 0;" transform=" matrix(1 0 0 1 0 0) "/>
  <rect x="157.31" y="273.24" rx="0" ry="0" width="15.67" height="15.67" style="stroke: none; stroke-width: 1; stroke-dasharray: none; stroke-linecap: butt; stroke-linejoin: miter; stroke-miterlimit: 10; fill: #412fcc; fill-rule: nonzero; opacity: 0;" transform=" matrix(1 0 0 1 0 0) "/>
</g>
</svg>